<?xml version="1.0" encoding="UTF-8" standalone="no"?>
<svg
   height="20"
   viewBox="0 -960 800 800"
   width="20"
   version="1.1"
   id="svg1"
   sodipodi:docname="favicon.svg"
   inkscape:version="1.3.2 (091e20e, 2023-11-25, custom)"
   xmlns:inkscape="http://www.inkscape.org/namespaces/inkscape"
   xmlns:sodipodi="http://sodipodi.sourceforge.net/DTD/sodipodi-0.dtd"
   xmlns="http://www.w3.org/2000/svg"
   xmlns:svg="http://www.w3.org/2000/svg">
  <defs
     id="defs1" />
  <sodipodi:namedview
     id="namedview1"
     pagecolor="#ffffff"
     bordercolor="#000000"
     borderopacity="0.25"
     inkscape:showpageshadow="2"
     inkscape:pageopacity="0.0"
     inkscape:pagecheckerboard="true"
     inkscape:deskcolor="#d1d1d1"
     inkscape:zoom="58.666667"
     inkscape:cx="9.9971591"
     inkscape:cy="10.985795"
     inkscape:window-width="2880"
     inkscape:window-height="1708"
     inkscape:window-x="-12"
     inkscape:window-y="-12"
     inkscape:window-maximized="1"
     inkscape:current-layer="svg1" />
  <path
     d="m 400,-160 c -55.33333,0 -107.33333,-10.5 -156,-31.5 C 195.33333,-212.5 153,-241 117,-277 81,-313 52.5,-355.33333 31.5,-404 10.5,-452.66667 0,-504.66667 0,-560 c 0,-55.33333 10.5,-107.33333 31.5,-156 21,-48.66667 49.5,-91 85.5,-127 36,-36 78.33333,-64.5 127,-85.5 48.66667,-21 100.66667,-31.5 156,-31.5 55.33333,0 107.33333,10.5 156,31.5 48.66667,21 91,49.5 127,85.5 36,36 64.5,78.33333 85.5,127 21,48.66667 31.5,100.66667 31.5,156 0,55.33333 -10.5,107.33333 -31.5,156 -21,48.66667 -49.5,91 -85.5,127 -36,36 -78.33333,64.5 -127,85.5 -48.66667,21 -100.66667,31.5 -156,31.5 z m 0,-80 c 89.33333,0 165,-31 227,-93 62,-62 93,-137.66667 93,-227 0,-89.33333 -31,-165 -93,-227 -62,-62 -137.66667,-93 -227,-93 -89.33333,0 -165,31 -227,93 -62,62 -93,137.66667 -93,227 0,89.33333 31,165 93,227 62,62 137.66667,93 227,93 z"
     id="path1"
     style="fill:#251e7d;fill-opacity:1"
     inkscape:label="path1"
     sodipodi:nodetypes="ssssssssssssssssssssssssss" />
  <path
     d="m 400,-360 c 55.33333,0 102.5,-19.5 141.5,-58.5 39,-39 58.5,-86.16667 58.5,-141.5 0,-55.33333 -19.5,-102.5 -58.5,-141.5 -39,-39 -86.16667,-58.5 -141.5,-58.5 -55.33333,0 -102.5,19.5 -141.5,58.5 -78.66934,78.66934 -78.67599,204.32401 0,283 39,39 86.16667,58.5 141.5,58.5 z"
     id="path2"
     style="fill:#940707;fill-opacity:1"
     sodipodi:nodetypes="ssssssss" />
</svg>
