<?xml version="1.0" encoding="UTF-8" standalone="no"?>
<svg
   height="18"
   viewBox="0 -960 800 720"
   width="20"
   version="1.1"
   id="svg1"
   xmlns="http://www.w3.org/2000/svg"
   xmlns:svg="http://www.w3.org/2000/svg">
  <defs
     id="defs1" />
  <path
     d="m 200,-400 q 17,0 28.5,-11.5 Q 240,-423 240,-440 240,-457 228.5,-468.5 217,-480 200,-480 q -17,0 -28.5,11.5 -11.5,11.5 -11.5,28.5 0,17 11.5,28.5 11.5,11.5 28.5,11.5 z m -40,-160 h 80 v -240 h -80 z m 200,160 h 280 v -80 H 360 Z m 0,-160 h 280 v -80 H 360 Z m 0,-160 h 280 v -80 H 360 Z M 80,-240 Q 47,-240 23.5,-263.5 0,-287 0,-320 V -880 Q 0,-913 23.5,-936.5 47,-960 80,-960 h 640 q 33,0 56.5,23.5 23.5,23.5 23.5,56.5 v 560 q 0,33 -23.5,56.5 Q 753,-240 720,-240 Z m 0,-80 H 720 V -880 H 80 Z m 0,0 v -560 z"
     id="path1"
     style="fill:#560eac;fill-opacity:1" />
</svg>
