<svg xmlns="http://www.w3.org/2000/svg" viewBox="0 0 878 183" width="201" height="42"><defs><linearGradient y2=".528" x2="0" y1="0" x1="0" id="a"><stop offset=".887" stop-opacity=".996" stop-color="#005bbc"/><stop offset="1" stop-opacity=".996" stop-color="#ffd600"/></linearGradient></defs><path d="M52.07 91.84c0 15.46-8.29 25.8-21.32 25.8-9.22 0-14.16-4.29-15.84-10.06l-.99.08 1.18 11.19v15.55H.57V67.35h14.06L13.24 81.6l1.02.09c1.21-10.43 6.43-15.65 17.14-15.65 12.38 0 20.67 10.25 20.67 25.8zm-13.31 0c0-8.85-4.1-13.6-11.83-13.6-7.83 0-12.02 4.75-12.02 13.6s4.19 13.6 12.02 13.6c7.73 0 11.83-4.75 11.83-13.6zm70.49 0c0 15.55-10.15 25.8-25.42 25.8-15.28 0-25.43-10.25-25.43-25.8s10.15-25.8 25.43-25.8c15.27 0 25.42 10.25 25.42 25.8zm-13.32 0c0-8.75-4.19-13.5-12.1-13.5-7.92 0-12.11 4.75-12.11 13.5 0 8.85 4.19 13.5 12.11 13.5 7.91 0 12.1-4.65 12.1-13.5z" fill-rule="evenodd" fill="#0086ab"/><path d="M134.98 104.6c-3.07 0-4.56-1.86-4.56-5.4V48.72h-13.79v52.62c0 10.06 5.22 16.3 14.72 16.3 4 0 7.35-.75 10.52-2.24l-1.21-12.11c-2.42.94-3.72 1.31-5.68 1.31zm40.72-18.07l-10.89-2.51c-3.45-.75-4.57-1.59-4.57-3.36 0-2.51 2.14-3.53 7.36-3.53 5.59 0 11.36 1.3 17.41 3.91l1.22-12.02c-5.5-1.95-11.74-2.98-18.16-2.98-12.95 0-20.68 5.68-20.68 15.18 0 7.92 3.63 12.3 11.92 14.44l10.9 2.79c4.28 1.12 5.49 2.05 5.49 4.19-.09 2.8-2.05 3.73-7.73 3.73-7.26 0-12.94-1.03-18.53-3.45l-1.3 12.39c5.02 1.67 10.61 2.33 19.83 2.33 12.85 0 20.58-5.5 20.58-15.84 0-7.73-3.72-13.13-12.85-15.27z" fill="#0086ab"/><path d="M232.32 67.35h14.07v48.98h-14.25l1.62-15.36-1.06-.1c-1.22 11.09-6.43 16.77-17.14 16.77-12.39 0-20.67-10.25-20.67-25.8 0-15.46 8.38-25.8 21.69-25.8 9.32 0 13.23 3.64 15.46 8.94l1.03-.08-.75-7.55zm-.28 24.49c0-8.85-4.19-13.6-12.01-13.6-7.73 0-11.83 4.75-11.83 13.6s4.1 13.6 11.83 13.6c7.82 0 12.01-4.75 12.01-13.6z" fill-rule="evenodd" fill="#0086ab"/><path d="M281.16 104.6c-4.75 0-6.24-1.59-6.24-6.89V79.92h11.64V67.35h-11.64v-12.3l-13.79 2.05v10.25h-7.45v12.57h7.45v21.51c0 10.62 6.24 16.21 16.02 16.21 5.87 0 9.13-.94 12.11-2.24l-1.31-12.2c-2.6 1.03-4.56 1.4-6.79 1.4z" fill="#0086ab"/><path stroke="null" d="M309.46 81.77l1.03.1c1.21-10.77 6.36-16.11 16.85-16.11 11.33 0 17.88 7.21 17.88 19.85v31.09h-13.85V87.3c0-6-2.91-9.18-8.34-9.18-7.77 0-11.14 3.18-11.14 10.3v28.28h-13.86V67.45h12.83l-1.4 14.32zm44.47 10.3c0-15.26 10.02-25.93 24.25-25.93 13.86 0 23.13 10.01 23.13 25 0 1.59-.09 3.18-.28 4.68h-38.48v-8.71h28.46l-2.62 3.09c0-8.33-3.93-12.17-10.21-12.17-7.3 0-11.14 4.77-11.14 13.85 0 9.27 3.46 13.77 13.48 13.77 4.97 0 9.65-1.59 15.55-5.81l5.05 10.3c-6.27 5.15-12.64 7.87-20.88 7.87-17.04 0-26.31-10.21-26.31-25.94zm96.35-24.53L461.42 102l-2.34.09 10.11-34.55h13.49l-15.64 49.16h-13.3l-11.98-36.43h3.28l-11.8 36.43h-13.48l-15.92-49.16h14.23L428.18 102l-2.34-.1 11.24-34.36h13.2zM528.09 102c0 9.92-7.87 16.01-20.7 16.01-7.02 0-13.67-1.5-20.22-4.4l2.81-10.4c6.93 2.53 11.61 3.47 17.23 3.47 5.24 0 7.96-1.41 7.96-4.31 0-2.25-1.13-3.37-5.15-4.21L500.09 96c-8.71-1.96-12.92-6.64-12.92-14.6 0-9.46 7.96-15.26 20.97-15.26 6.09 0 11.89 1.12 17.98 3.84l-2.43 10.29c-4.69-1.96-10.49-2.99-15.92-2.99-5.06 0-7.68 1.31-7.68 3.84 0 1.87 1.22 2.9 4.21 3.56l10.59 2.24c8.61 1.78 13.2 7.02 13.2 15.08z" fill="url(#a)"/><path d="M533.05 109.11c0-5.24 3.46-8.7 8.71-8.7 5.24 0 8.7 3.46 8.7 8.7 0 5.25-3.46 8.71-8.7 8.71-5.25 0-8.71-3.46-8.71-8.71z" fill="#0086ab"/><path d="M559.08 67.45h14.14l-1.41 14.32 1.03.1c1.22-10.49 6.46-15.73 17.23-15.73 12.45 0 20.78 10.3 20.78 25.93 0 15.54-8.33 25.94-21.44 25.94-9.27 0-14.23-4.31-15.91-10.11l-1 .07 1.18 11.26v15.63h-14.6V67.45zm38.39 24.62c0-8.89-4.12-13.67-11.9-13.67-7.86 0-12.07 4.78-12.07 13.67 0 8.9 4.21 13.67 12.07 13.67 7.78 0 11.9-4.77 11.9-13.67z" fill-rule="evenodd" fill="#0086ab"/><path d="M643.62 103.96l1.32 12.36c-3.19 1.22-6.65 1.69-11.33 1.69-8.71 0-14.14-6.28-14.14-16.39v-52.9h13.85v50.75c0 3.56 1.5 5.43 4.31 5.43 2.25 0 3.65-.19 5.99-.94zm75.77 32.78c22.28 3.17 48.48-17.28 69.6-33.15 19.81-14.9 44.21-33.2 62.5-32.99 11.96.13 22.44 6.99 25.72 16.27-.32-3.54-2.01-14.08-3.22-19.13-2.32-6.89-8.65-22.21-29.76-22.11-21.78.09-46.13 18.95-65.55 33.22-24.11 17.71-45.72 36.26-68.65 32.03-12.31-2.28-17.63-7.97-19.4-13.03.24 3.22 1.86 13.38 3.17 18.92 2.96 6.62 9.24 17.64 25.59 19.97z" fill="#0086ab"/><path d="M814.24 5.19c-43.53-14.42-87.26 3.18-110.94 39.7 3.26 7.01 11.6 4.92 25.01-6.26C759.66 12.49 775.99.59 814.24 5.19z" fill="#00b0d2"/><path d="M764.79 34.07c-9.64 7.06-23.64 17.75-33.57 24.38-11.73 7.85-28.13 18.91-36.07 4.31-1.16 3.6-3.33 11.12-3.4 14.45.39 4.75 5.03 14.9 18.68 15.13 17.55.3 33.8-14.85 58.64-33.28 26.11-19.37 44.28-32.09 65.55-29.6 16.85 1.96 24.92 9.91 31.09 17.85-5.35-10.24-16.13-22.67-30.06-31.62-15.44-9.91-39.74-4.42-70.86 18.38z" fill="#00caf1"/><path d="M753.38 177.93c43.53 14.42 87.26-3.18 110.94-39.7-3.26-7.01-11.6-4.92-25.01 6.26-31.35 26.14-47.68 38.04-85.93 33.44zm49.45-28.88c9.64-7.06 23.64-17.75 33.57-24.38 11.73-7.85 28.13-18.91 36.08-4.31 1.15-3.6 3.32-11.12 3.39-14.45-.39-4.75-5.03-14.9-18.68-15.13-17.55-.3-33.8 14.85-58.64 33.28-26.11 19.37-44.28 32.09-65.55 29.6-16.85-1.96-24.92-9.91-31.09-17.85 5.35 10.24 16.13 22.67 30.06 31.62 15.44 9.91 39.74 4.42 70.86-18.38z" fill="#005e8c"/></svg>